<svg width="190" height="130" viewBox="0 0 190 130" fill="none" xmlns="http://www.w3.org/2000/svg">
<path d="M37.9412 16H80L43.7647 113H3L37.9412 16Z" fill="#F0131E"/>
<path d="M37.9412 16H80L43.7647 113H3L37.9412 16Z" fill="#F0131E"/>
<path d="M118 16H136L98.5 113H81L118 16Z" fill="#F3F3F3"/>
<path d="M118 16H136L98.5 113H81L118 16Z" fill="#F3F3F3"/>
<path d="M91 16H109L71.5 113H54L91 16Z" fill="#F3F3F3"/>
<path d="M91 16H109L71.5 113H54L91 16Z" fill="#F3F3F3"/>
<path d="M143.941 16H186L149.765 113H109L143.941 16Z" fill="#F0131E"/>
<path d="M143.941 16H186L149.765 113H109L143.941 16Z" fill="#F0131E"/>
</svg>
