<svg width="190" height="130" viewBox="0 0 190 130" fill="none" xmlns="http://www.w3.org/2000/svg">
<path d="M37.9412 113H80L43.7647 16H3L37.9412 113Z" fill="#F0131E"/>
<path d="M37.9412 113H80L43.7647 16H3L37.9412 113Z" fill="#F0131E"/>
<path d="M118 113H136L98.5 16H81L118 113Z" fill="#F3F3F3"/>
<path d="M118 113H136L98.5 16H81L118 113Z" fill="#F3F3F3"/>
<path d="M91 113H109L71.5 16H54L91 113Z" fill="#F3F3F3"/>
<path d="M91 113H109L71.5 16H54L91 113Z" fill="#F3F3F3"/>
<path d="M143.941 113H186L149.765 16H109L143.941 113Z" fill="#F0131E"/>
<path d="M143.941 113H186L149.765 16H109L143.941 113Z" fill="#F0131E"/>
</svg>
