<svg width="22" height="22" viewBox="0 0 22 22" fill="none" xmlns="http://www.w3.org/2000/svg">
<g clip-path="url(#clip0_25_317)">
<path d="M16.145 14.2229C17.4764 12.4061 18.0728 10.1536 17.8147 7.91597C17.5566 5.67838 16.4632 3.62073 14.7532 2.1547C13.0432 0.68866 10.8427 -0.0776511 8.59192 0.00907452C6.34116 0.0958001 4.20615 1.02917 2.61401 2.62244C1.02188 4.21572 0.0900391 6.3514 0.00492414 8.60222C-0.0801909 10.853 0.687695 13.053 2.15496 14.762C3.62222 16.4709 5.68064 17.5629 7.91842 17.8193C10.1562 18.0758 12.4083 17.4778 14.2241 16.1451H14.2228C14.264 16.2001 14.308 16.2524 14.3575 16.3033L19.6513 21.597C19.9091 21.855 20.2588 22 20.6236 22.0002C20.9883 22.0003 21.3382 21.8555 21.5962 21.5977C21.8542 21.3399 21.9992 20.9901 21.9994 20.6254C21.9995 20.2606 21.8547 19.9108 21.5969 19.6528L16.3031 14.359C16.254 14.3093 16.2011 14.2633 16.145 14.2215V14.2229ZM16.4998 8.93739C16.4998 9.93052 16.3042 10.9139 15.9241 11.8314C15.5441 12.749 14.987 13.5826 14.2848 14.2849C13.5825 14.9871 12.7488 15.5442 11.8313 15.9242C10.9138 16.3043 9.93039 16.4999 8.93727 16.4999C7.94415 16.4999 6.96075 16.3043 6.04323 15.9242C5.1257 15.5442 4.29202 14.9871 3.58977 14.2849C2.88753 13.5826 2.33048 12.749 1.95043 11.8314C1.57038 10.9139 1.37477 9.93052 1.37477 8.93739C1.37477 6.93169 2.17153 5.00814 3.58977 3.5899C5.00802 2.17166 6.93157 1.37489 8.93727 1.37489C10.943 1.37489 12.8665 2.17166 14.2848 3.5899C15.703 5.00814 16.4998 6.93169 16.4998 8.93739Z" fill="black"/>
</g>
<defs>
<clipPath id="clip0_25_317">
<rect width="22" height="22" fill="white"/>
</clipPath>
</defs>
</svg>
